<svg height="512" viewBox="0 0 56 60" width="512" xmlns="http://www.w3.org/2000/svg"><g id="Page-1" fill="none" fill-rule="evenodd"><g id="001---Tracks" fill="rgb(0,0,0)" fill-rule="nonzero"><path id="Shape" d="m2 55h6v3c0 1.1045695.8954305 2 2 2h5c1.1045695 0 2-.8954305 2-2v-3h22v3c0 1.1045695.8954305 2 2 2h5c1.1045695 0 2-.8954305 2-2v-3h6c1.1045695 0 2-.8954305 2-2v-8c0-1.1045695-.8954305-2-2-2h-6v-7h6c1.1045695 0 2-.8954305 2-2v-8c0-1.1045695-.8954305-2-2-2h-6v-7h6c1.1045695 0 2-.8954305 2-2v-8c0-1.1045695-.8954305-2-2-2h-6v-3c0-1.1045695-.8954305-2-2-2h-5c-1.1045695 0-2 .8954305-2 2v3h-22v-3c0-1.1045695-.8954305-2-2-2h-5c-1.1045695 0-2 .8954305-2 2v3h-6c-1.1045695 0-2 .8954305-2 2v8c0 1.1045695.8954305 2 2 2h6v7h-6c-1.1045695 0-2 .8954305-2 2v8c0 1.1045695.8954305 2 2 2h6v7h-6c-1.1045695 0-2 .8954305-2 2v8c0 1.1045695.8954305 2 2 2zm37-26h-2c-.5522847 0-1 .4477153-1 1s.4477153 1 1 1h2v3h-22v-3h2c.5522847 0 1-.4477153 1-1s-.4477153-1-1-1h-2v-3h22zm-22 7h22v7h-22zm22-12h-22v-7h22zm-22 29v-2h2c.5522847 0 1-.4477153 1-1s-.4477153-1-1-1h-2v-4h22v4h-2c-.5522847 0-1 .4477153-1 1s.4477153 1 1 1h2v2zm37-8v8h-6v-8zm0-19v8h-6v-8zm0-19v8h-6v-8zm-13-5h5v4 52h-5zm-2 5v3h-2c-.5522847 0-1 .4477153-1 1s.4477153 1 1 1h2v3h-22v-3h2c.5522847 0 1-.4477153 1-1s-.4477153-1-1-1h-2v-3zm-29-5h5v4 5 47h-5zm-8 13v-8h6v8zm0 19v-8h6v8zm0 11h6v8h-6z"/><circle id="Oval" cx="5" cy="11" r="1"/><circle id="Oval" cx="5" cy="30" r="1"/><circle id="Oval" cx="5" cy="49" r="1"/><circle id="Oval" cx="51" cy="11" r="1"/><circle id="Oval" cx="51" cy="30" r="1"/><circle id="Oval" cx="51" cy="49" r="1"/></g></g></svg>